<?xml version="1.0" standalone="no"?>
<!DOCTYPE svg PUBLIC "-//W3C//DTD SVG 20010904//EN"
 "http://www.w3.org/TR/2001/REC-SVG-20010904/DTD/svg10.dtd">
<svg version="1.0" xmlns="http://www.w3.org/2000/svg"
 width="1536.000000pt" height="1536.000000pt" viewBox="0 0 1536.000000 1536.000000"
 preserveAspectRatio="xMidYMid meet">
<metadata>
Created by potrace 1.11, written by Peter Selinger 2001-2013
</metadata>
<g transform="translate(0.000000,1536.000000) scale(0.100000,-0.100000)"
fill="#000000" stroke="none">
<path d="M7653 15324 c-3 -8 -14 -14 -24 -14 -10 0 -19 -4 -19 -10 0 -5 -12
-10 -26 -10 -14 0 -23 -4 -19 -10 3 -6 -4 -10 -17 -10 -13 0 -31 -11 -42 -24
-10 -14 -24 -22 -32 -19 -9 3 -14 -1 -14 -12 0 -11 -5 -15 -14 -12 -8 3 -27
-5 -43 -19 -15 -13 -34 -24 -40 -24 -7 0 -13 -4 -13 -10 0 -5 -9 -10 -19 -10
-11 0 -21 -4 -23 -9 -1 -5 -12 -11 -23 -13 -23 -3 -45 -22 -45 -37 0 -5 -9 -8
-19 -6 -11 2 -22 -3 -25 -11 -3 -8 -12 -14 -21 -14 -8 0 -15 -4 -15 -10 0 -5
-10 -10 -23 -10 -12 0 -29 -9 -37 -20 -8 -11 -22 -20 -32 -20 -10 0 -18 -4
-18 -10 0 -5 -12 -10 -26 -10 -14 0 -23 -4 -19 -10 6 -9 -16 -15 -39 -11 -5 1
-6 -6 -2 -15 4 -12 2 -15 -9 -10 -9 3 -15 0 -15 -9 0 -8 -9 -15 -20 -15 -11 0
-20 -4 -20 -10 0 -5 -8 -10 -17 -10 -10 0 -29 -9 -43 -20 -14 -11 -31 -20 -37
-20 -7 0 -13 -4 -13 -10 0 -5 -9 -10 -19 -10 -10 0 -22 -7 -25 -16 -3 -9 -12
-14 -20 -11 -8 3 -22 -5 -32 -19 -11 -13 -27 -24 -36 -24 -10 0 -18 -4 -18
-10 0 -5 -9 -10 -20 -10 -11 0 -20 -4 -20 -10 0 -5 -10 -10 -23 -10 -12 0 -31
-11 -41 -25 -10 -13 -23 -22 -28 -19 -6 4 -14 1 -18 -7 -5 -7 -16 -14 -25 -15
-10 -1 -27 -12 -39 -23 -12 -12 -26 -21 -30 -21 -4 0 -14 -7 -23 -15 -8 -8
-19 -13 -24 -10 -5 4 -9 1 -9 -4 0 -6 -12 -11 -27 -11 -22 0 -25 -2 -13 -10
12 -8 11 -10 -7 -10 -13 0 -23 -6 -23 -14 0 -9 -7 -13 -20 -11 -13 2 -20 -2
-20 -11 0 -8 -9 -14 -20 -14 -11 0 -20 -4 -20 -10 0 -5 -10 -10 -23 -10 -12 0
-29 -9 -37 -20 -8 -11 -22 -20 -32 -20 -10 0 -18 -4 -18 -10 0 -5 -9 -10 -20
-10 -11 0 -20 -4 -20 -10 0 -5 -9 -10 -19 -10 -11 0 -23 -5 -27 -12 -5 -7 -3
-8 6 -3 8 5 11 4 6 -3 -4 -6 -13 -9 -21 -5 -9 3 -15 -1 -15 -11 0 -9 -8 -16
-20 -16 -11 0 -20 -4 -20 -10 0 -5 -12 -10 -26 -10 -14 0 -23 -4 -19 -10 3 -5
-1 -10 -9 -10 -9 0 -16 -4 -16 -10 0 -5 -9 -10 -20 -10 -11 0 -20 -4 -20 -10
0 -5 -9 -10 -21 -10 -11 0 -17 -4 -14 -10 5 -9 -3 -11 -30 -10 -3 0 -16 -11
-29 -25 -13 -14 -31 -25 -40 -25 -9 0 -16 -4 -16 -10 0 -5 -9 -10 -20 -10 -11
0 -20 -4 -20 -10 0 -5 -10 -10 -23 -10 -12 0 -29 -9 -37 -20 -8 -11 -22 -20
-32 -20 -10 0 -18 -7 -18 -16 0 -10 -7 -14 -22 -12 -14 2 -22 -2 -20 -9 2 -12
-10 -17 -30 -14 -5 0 -8 -3 -8 -9 0 -5 -7 -10 -15 -10 -8 0 -15 -4 -15 -10 0
-5 -9 -10 -20 -10 -11 0 -20 -4 -20 -10 0 -5 -9 -10 -20 -10 -11 0 -20 -4 -20
-10 0 -5 -7 -10 -15 -10 -8 0 -15 -6 -15 -14 0 -9 -7 -13 -20 -11 -13 2 -20
-2 -20 -11 0 -8 -9 -14 -20 -14 -11 0 -20 -4 -20 -10 0 -5 -10 -10 -23 -10
-12 0 -29 -9 -37 -20 -8 -11 -22 -20 -32 -20 -10 0 -18 -4 -18 -10 0 -5 -9
-10 -20 -10 -11 0 -20 -4 -20 -10 0 -5 -9 -10 -20 -10 -11 0 -23 -7 -26 -15
-4 -8 -10 -13 -14 -10 -4 3 -10 -4 -13 -15 -3 -13 -11 -18 -20 -14 -8 3 -17
-2 -20 -10 -4 -9 -13 -12 -28 -9 -15 4 -20 2 -15 -5 4 -6 -8 -16 -29 -23 -19
-7 -35 -17 -35 -21 0 -4 -9 -8 -21 -8 -11 0 -17 -4 -14 -10 3 -5 -1 -11 -9
-11 -9 -1 -20 -2 -25 -3 -5 0 -18 -11 -29 -23 -11 -13 -27 -23 -36 -23 -9 0
-16 -4 -16 -10 0 -5 -9 -10 -20 -10 -11 0 -20 -4 -20 -10 0 -5 -8 -10 -18 -10
-10 0 -28 -9 -40 -20 -12 -11 -28 -20 -37 -20 -8 0 -15 -7 -15 -16 0 -8 -4
-13 -9 -9 -5 3 -15 -1 -23 -8 -7 -7 -28 -20 -45 -28 -18 -7 -33 -17 -33 -21 0
-5 -9 -8 -19 -8 -11 0 -21 -5 -23 -10 -2 -6 -13 -12 -25 -13 -12 0 -20 -3 -17
-6 7 -7 -49 -41 -58 -35 -4 3 -8 -2 -8 -10 0 -9 -9 -16 -20 -16 -11 0 -20 -4
-20 -10 0 -5 -9 -10 -20 -10 -11 0 -20 -4 -20 -10 0 -5 -7 -10 -15 -10 -8 0
-15 -4 -15 -10 0 -5 -9 -10 -20 -10 -11 0 -20 -4 -20 -10 0 -5 -9 -10 -19 -10
-10 0 -21 -7 -24 -15 -4 -8 -15 -12 -27 -10 -11 2 -20 -1 -20 -6 0 -16 -27
-39 -44 -39 -9 0 -16 -4 -16 -10 0 -5 -9 -10 -20 -10 -11 0 -20 -4 -20 -8 0
-4 -15 -14 -34 -20 -19 -7 -37 -19 -40 -27 -3 -8 -12 -12 -19 -9 -8 3 -17 -2
-21 -11 -3 -9 -10 -13 -16 -10 -5 3 -21 -5 -34 -19 -13 -14 -31 -26 -40 -26
-9 0 -16 -4 -16 -10 0 -5 -9 -10 -20 -10 -11 0 -20 -4 -20 -10 0 -5 -8 -10
-18 -10 -10 0 -28 -9 -40 -20 -12 -11 -28 -20 -37 -20 -8 0 -15 -6 -15 -14 0
-9 -7 -13 -20 -11 -13 2 -20 -2 -20 -11 0 -8 -8 -14 -18 -14 -10 0 -28 -9 -40
-20 -12 -11 -28 -20 -37 -20 -8 0 -15 -4 -15 -10 0 -5 -9 -10 -19 -10 -10 0
-21 -6 -24 -14 -3 -8 -14 -12 -24 -10 -13 4 -23 -3 -33 -20 -7 -14 -22 -26
-32 -26 -10 0 -18 -4 -18 -10 0 -5 -12 -10 -26 -10 -14 0 -23 -4 -20 -8 3 -5
-10 -15 -29 -22 -19 -8 -35 -17 -35 -22 0 -4 -9 -8 -20 -8 -11 0 -20 -6 -20
-14 0 -9 -7 -12 -19 -9 -11 3 -21 -2 -25 -12 -3 -9 -10 -14 -15 -11 -5 3 -11
-1 -15 -9 -3 -8 -12 -15 -21 -15 -8 0 -15 -4 -15 -10 0 -5 -9 -10 -20 -10 -11
0 -20 -4 -20 -10 0 -5 -8 -10 -18 -10 -10 0 -28 -9 -40 -20 -12 -11 -28 -20
-36 -20 -7 0 -16 -7 -20 -15 -3 -8 -12 -12 -19 -9 -8 3 -17 -2 -20 -10 -4 -9
-15 -16 -24 -16 -10 0 -25 -9 -33 -20 -8 -11 -22 -20 -32 -20 -10 0 -18 -4
-18 -10 0 -5 -12 -10 -26 -10 -14 0 -23 -4 -19 -10 3 -5 -3 -10 -15 -10 -23 0
-50 -22 -50 -40 0 -7 -7 -9 -15 -6 -9 3 -18 -1 -21 -9 -4 -8 -17 -15 -30 -15
-13 0 -24 -4 -24 -9 0 -5 -9 -13 -20 -16 -11 -3 -26 -12 -33 -18 -21 -19 -56
-37 -72 -37 -9 0 -18 -7 -21 -15 -4 -8 -10 -13 -14 -10 -4 3 -10 -2 -14 -10
-3 -8 -12 -15 -21 -15 -8 0 -15 -4 -15 -10 0 -5 -9 -10 -20 -10 -11 0 -20 -4
-20 -10 0 -5 -10 -10 -23 -10 -12 0 -29 -9 -37 -20 -8 -11 -22 -20 -31 -20 -9
0 -19 -7 -23 -15 -3 -8 -12 -12 -21 -9 -9 4 -15 0 -15 -10 0 -9 -6 -13 -14
-10 -8 3 -25 -6 -39 -20 -15 -14 -33 -26 -42 -26 -8 0 -15 -4 -15 -10 0 -5 -9
-10 -19 -10 -11 0 -23 -4 -26 -10 -3 -5 -14 -10 -23 -10 -10 0 -25 -11 -36
-24 -10 -14 -24 -22 -32 -19 -8 3 -14 -1 -14 -11 0 -10 -9 -16 -25 -16 -14 0
-25 -4 -25 -10 0 -5 -6 -10 -13 -10 -7 0 -23 -9 -35 -20 -12 -11 -28 -20 -37
-20 -8 0 -15 -4 -15 -10 0 -5 -10 -10 -23 -10 -12 0 -31 -11 -41 -25 -10 -13
-22 -22 -27 -19 -5 3 -12 -2 -15 -10 -3 -9 -15 -16 -25 -16 -10 0 -19 -4 -19
-10 0 -5 -10 -10 -23 -10 -12 0 -29 -9 -37 -20 -8 -11 -22 -20 -31 -20 -9 0
-19 -7 -23 -15 -3 -8 -12 -12 -21 -9 -8 4 -17 0 -21 -9 -3 -9 -14 -14 -25 -12
-10 2 -19 -1 -19 -6 0 -16 -27 -39 -44 -39 -9 0 -16 -4 -16 -10 0 -5 -11 -10
-25 -10 -14 0 -25 -4 -25 -10 0 -5 -8 -10 -18 -10 -10 0 -24 -9 -32 -20 -8
-11 -22 -20 -32 -20 -10 0 -18 -7 -18 -16 0 -11 -6 -13 -19 -9 -11 3 -23 0
-28 -7 -4 -7 -19 -19 -33 -26 -23 -12 -25 -19 -25 -76 0 -40 4 -62 10 -59 5 3
5 0 -2 -7 -9 -9 -9 -19 -2 -33 6 -11 7 -17 2 -14 -4 3 -8 -75 -8 -173 0 -104
4 -176 9 -172 5 3 6 -1 1 -9 -13 -20 -12 -449 0 -449 7 0 7 -3 0 -8 -14 -10
-15 -103 -1 -95 6 3 6 0 -1 -7 -9 -9 -9 -19 -2 -33 6 -11 7 -17 2 -14 -4 3 -8
-75 -8 -173 0 -104 4 -176 9 -172 5 3 6 -1 1 -9 -13 -20 -12 -449 0 -449 7 0
7 -3 0 -8 -14 -10 -15 -103 -1 -95 6 3 6 0 -1 -7 -9 -9 -9 -19 -2 -33 6 -11 7
-17 2 -14 -4 3 -8 -75 -8 -173 0 -104 4 -176 9 -172 5 3 6 -1 1 -9 -11 -17
-13 -77 -3 -107 4 -13 5 -21 0 -19 -10 7 -7 -337 3 -353 5 -8 4 -11 -1 -7 -11
7 -10 -255 1 -274 5 -6 4 -10 -1 -6 -11 6 -10 -335 1 -353 5 -7 4 -11 -1 -7
-13 7 -12 -276 1 -285 7 -5 7 -8 0 -8 -5 0 -10 -22 -10 -49 -1 -32 3 -48 10
-44 5 3 5 0 -2 -7 -9 -9 -9 -19 -2 -33 6 -11 7 -17 2 -14 -4 3 -8 -75 -8 -173
0 -104 4 -176 9 -172 5 3 6 -1 1 -9 -13 -20 -12 -449 0 -449 7 0 7 -3 0 -8
-14 -10 -15 -103 -1 -95 6 3 6 0 -1 -7 -9 -9 -9 -19 -2 -33 6 -11 7 -17 2 -14
-4 3 -8 -75 -8 -173 0 -104 4 -176 9 -172 5 3 6 -1 1 -9 -13 -20 -12 -449 0
-449 7 0 7 -3 0 -8 -14 -10 -15 -103 -1 -95 6 3 6 0 -1 -7 -9 -9 -9 -19 -2
-33 6 -11 7 -17 2 -14 -4 3 -8 -75 -8 -173 0 -104 4 -176 9 -172 5 3 6 -1 1
-9 -11 -17 -13 -77 -3 -107 4 -13 5 -21 0 -19 -10 7 -7 -337 3 -353 5 -8 4
-11 -1 -7 -11 7 -10 -255 1 -274 5 -6 4 -10 -1 -6 -11 6 -10 -335 1 -353 5 -7
4 -11 -1 -7 -5 3 -9 -47 -9 -121 0 -129 6 -152 39 -152 9 0 16 -4 16 -10 0 -5
10 -10 23 -10 12 0 29 -9 37 -20 8 -11 22 -20 31 -20 10 0 19 -4 21 -9 2 -5
10 -11 18 -13 8 -2 21 -9 29 -16 7 -7 20 -11 27 -8 8 3 14 1 14 -5 0 -16 26
-39 44 -39 9 0 16 -4 16 -10 0 -5 6 -10 14 -10 23 0 96 -43 96 -56 0 -7 9 -11
20 -9 13 2 20 -2 20 -11 0 -8 10 -14 23 -14 12 0 29 -9 37 -20 8 -11 22 -20
32 -20 10 0 18 -4 18 -10 0 -5 9 -10 20 -10 11 0 20 -4 20 -10 0 -5 11 -10 25
-10 16 0 25 -6 25 -16 0 -8 5 -12 10 -9 6 3 10 -1 10 -10 0 -9 4 -14 9 -10 5
3 17 -2 25 -11 9 -9 23 -13 31 -10 9 3 15 0 15 -9 0 -9 9 -15 23 -15 12 0 29
-9 37 -20 8 -11 22 -20 32 -20 10 0 18 -4 18 -8 0 -9 60 -35 78 -33 6 1 12 -3
12 -9 0 -17 26 -40 44 -40 9 0 16 -4 16 -10 0 -5 12 -10 26 -10 14 0 23 -4 19
-10 -3 -5 2 -10 12 -10 21 -1 53 -23 53 -38 0 -5 9 -8 20 -5 11 3 20 1 20 -5
0 -5 11 -13 25 -16 14 -4 25 -11 25 -17 0 -6 5 -7 10 -4 6 3 10 -1 10 -9 0 -9
9 -16 20 -16 11 0 20 -4 20 -10 0 -5 9 -10 19 -10 11 0 23 -4 26 -10 3 -5 14
-10 24 -10 10 0 23 -11 31 -24 8 -16 19 -23 31 -21 11 2 19 -2 19 -10 0 -8 8
-12 19 -10 11 2 22 -3 25 -11 3 -8 14 -14 23 -14 10 0 25 -9 33 -20 8 -11 22
-20 32 -20 10 0 18 -4 18 -10 0 -5 12 -10 26 -10 14 0 23 -4 19 -10 -5 -9 15
-15 38 -11 4 0 7 -6 7 -15 0 -8 5 -12 10 -9 5 3 10 -1 10 -9 0 -9 9 -16 20
-16 11 0 20 -4 20 -10 0 -5 11 -10 25 -10 14 0 25 -4 25 -10 0 -5 6 -10 13
-10 7 0 23 -9 35 -20 12 -11 28 -20 36 -20 7 0 16 -7 20 -15 3 -8 11 -12 19
-9 7 2 22 -7 33 -21 10 -14 27 -25 36 -25 10 0 18 -4 18 -10 0 -5 9 -10 20
-10 11 0 20 -4 20 -10 0 -5 9 -10 20 -10 12 0 32 -11 46 -25 14 -14 30 -23 35
-20 5 4 9 -1 9 -11 0 -11 6 -15 19 -11 12 3 22 -1 25 -9 3 -8 14 -14 23 -14
10 0 25 -9 33 -20 8 -11 22 -20 32 -20 10 0 18 -4 18 -10 0 -5 12 -10 26 -10
14 0 23 -4 19 -10 -3 -6 4 -10 18 -10 15 0 28 -9 37 -25 8 -15 20 -23 27 -21
8 3 16 -1 19 -9 4 -8 17 -15 30 -15 13 0 24 -4 24 -10 0 -5 6 -10 13 -10 7 0
23 -9 35 -20 12 -11 30 -20 42 -20 11 0 20 -6 20 -14 0 -9 7 -12 20 -9 14 4
20 0 20 -11 0 -10 4 -14 10 -11 5 3 10 -1 10 -9 0 -9 9 -16 20 -16 11 0 20 -4
20 -10 0 -5 9 -10 19 -10 11 0 23 -5 26 -10 3 -6 14 -10 23 -10 10 0 24 -9 32
-20 8 -11 22 -20 31 -20 9 0 19 -7 22 -15 4 -8 15 -12 27 -10 13 2 20 -1 20
-11 0 -8 7 -14 16 -14 9 0 25 -10 35 -21 11 -12 25 -19 34 -15 9 3 15 0 15 -9
0 -9 10 -15 25 -15 14 0 25 -4 25 -10 0 -5 9 -10 20 -10 11 0 20 -7 20 -16 0
-8 4 -12 10 -9 6 3 10 0 10 -8 0 -9 9 -14 23 -13 14 1 21 -4 19 -13 -2 -8 3
-11 12 -8 9 4 23 -2 32 -11 10 -9 20 -16 23 -15 3 1 16 -7 29 -17 12 -11 26
-20 31 -20 16 0 71 -32 71 -41 0 -6 5 -7 10 -4 6 3 10 -1 10 -9 0 -9 7 -13 20
-11 13 2 20 -2 20 -11 0 -8 10 -14 25 -14 14 0 25 -4 25 -10 0 -5 8 -10 18
-10 10 0 24 -9 32 -20 8 -11 22 -20 32 -20 10 0 18 -4 18 -10 0 -5 8 -10 19
-10 10 0 24 -7 31 -15 7 -9 19 -14 27 -11 7 3 13 1 13 -5 0 -18 27 -39 50 -39
12 0 18 -4 15 -10 -3 -6 4 -10 16 -10 12 0 30 -9 40 -21 9 -11 20 -20 23 -20
20 3 26 -1 26 -15 0 -9 6 -14 13 -11 14 5 65 -21 88 -45 9 -10 24 -18 33 -18
9 0 16 -4 16 -10 0 -5 11 -10 25 -10 14 0 25 -4 25 -10 0 -5 7 -10 16 -10 18
0 44 -23 44 -40 0 -6 4 -9 9 -6 4 3 17 -1 27 -9 10 -8 30 -15 43 -15 13 0 21
-3 18 -7 -6 -6 6 -14 76 -50 15 -8 27 -18 27 -23 0 -4 9 -6 20 -3 14 4 20 0
20 -11 0 -10 5 -14 10 -11 6 3 10 -1 10 -9 0 -10 6 -13 15 -10 8 4 17 -1 21
-10 3 -9 17 -16 30 -16 13 0 24 -4 24 -10 0 -5 8 -10 18 -10 10 0 24 -9 32
-20 8 -11 22 -20 32 -20 10 0 18 -4 18 -8 0 -6 52 -32 72 -36 3 0 15 -11 26
-23 11 -13 27 -23 36 -23 9 0 16 -4 16 -10 0 -5 9 -10 20 -10 12 0 30 -9 42
-20 12 -11 30 -20 40 -20 10 0 17 -6 15 -12 -1 -7 3 -12 10 -11 6 1 17 -4 23
-12 7 -8 20 -15 29 -15 9 0 23 -9 31 -20 8 -11 22 -20 32 -20 10 0 18 -4 18
-10 0 -5 12 -10 26 -10 14 0 23 -4 19 -10 -3 -6 3 -10 14 -10 11 0 32 -11 46
-26 14 -14 30 -22 35 -19 6 3 10 -1 10 -9 0 -10 9 -16 25 -16 14 0 25 -4 25
-10 0 -5 7 -10 15 -10 8 0 24 -9 35 -20 11 -11 29 -20 41 -20 11 0 17 -4 14
-10 -4 -6 5 -10 19 -10 14 0 26 -5 26 -11 0 -6 7 -17 15 -25 9 -9 15 -11 15
-4 0 6 10 2 22 -10 12 -11 30 -20 40 -20 11 0 16 -4 13 -10 -3 -6 4 -10 17
-10 13 0 30 -9 38 -20 8 -11 22 -20 32 -20 10 0 18 -4 18 -10 0 -5 9 -10 19
-10 10 0 22 -7 25 -16 3 -8 10 -13 15 -9 5 3 21 -6 35 -20 14 -14 32 -25 41
-25 8 0 15 -4 15 -10 0 -5 10 -10 23 -10 12 0 29 -9 37 -20 8 -11 22 -20 32
-20 10 0 18 -7 18 -15 0 -9 6 -15 13 -14 25 3 38 -1 32 -11 -3 -6 4 -10 17
-10 13 0 30 -9 38 -20 8 -11 22 -20 32 -20 10 0 18 -4 18 -10 0 -5 12 -10 26
-10 14 0 23 -4 19 -10 -3 -5 3 -10 15 -10 23 0 50 -22 50 -40 0 -7 7 -9 15 -6
9 3 18 -1 21 -9 4 -8 17 -15 30 -15 13 0 24 -4 24 -10 0 -5 6 -10 13 -10 7 0
23 -9 35 -20 12 -11 28 -20 36 -20 8 0 16 -5 18 -10 2 -6 13 -12 26 -13 12 0
22 -5 22 -10 0 -5 6 -15 14 -22 10 -11 16 -11 26 -2 7 7 10 8 8 2 -8 -14 14
-32 35 -29 9 1 17 -4 17 -12 0 -8 10 -14 23 -14 12 0 29 -9 37 -20 8 -11 22
-20 32 -20 10 0 18 -6 18 -14 0 -9 7 -12 20 -9 12 3 22 -1 26 -11 3 -9 10 -14
14 -11 5 3 20 -6 34 -20 26 -26 88 -35 101 -15 3 6 15 10 26 10 10 0 19 7 19
15 0 8 6 12 14 9 7 -3 23 6 34 20 11 14 29 26 41 26 12 0 21 5 21 10 0 6 9 10
20 10 11 0 20 5 20 10 0 6 8 10 18 10 10 0 24 9 32 20 8 11 25 20 37 20 14 0
23 6 23 16 0 8 5 12 10 9 6 -4 23 5 37 19 14 14 34 26 45 26 11 0 16 5 13 10
-4 6 5 10 20 10 19 0 26 4 22 14 -4 9 0 12 13 9 12 -3 29 5 46 22 14 14 32 24
40 21 8 -3 14 1 14 10 0 8 4 13 9 9 5 -3 16 2 24 10 9 8 22 15 29 15 8 0 20 9
28 20 8 11 25 20 37 20 13 0 23 5 23 10 0 6 9 10 20 10 11 0 20 4 20 9 0 5 9
13 20 16 11 4 17 11 14 17 -5 7 -1 9 9 5 9 -3 18 0 21 9 3 8 15 14 26 14 11 0
20 5 20 10 0 6 8 10 18 10 10 0 24 9 32 20 8 11 25 20 38 20 13 0 20 4 17 10
-4 6 5 10 19 10 16 0 26 6 26 14 0 9 7 13 19 11 12 -2 23 5 31 21 8 13 21 24
31 24 10 0 21 5 24 10 3 6 15 10 26 10 10 0 19 4 19 9 0 5 13 14 29 21 16 6
32 18 35 25 3 8 13 11 27 8 17 -5 21 -3 16 9 -4 12 0 15 19 13 13 -1 24 2 24
7 0 15 27 38 44 38 9 0 16 5 16 10 0 6 12 10 26 10 14 0 23 4 19 10 -3 5 3 10
15 10 11 0 32 11 46 25 14 14 29 23 34 20 4 -3 11 2 14 11 3 8 10 13 15 10 4
-3 21 6 37 19 16 14 35 25 42 25 6 0 12 5 12 10 0 6 12 10 26 10 14 0 23 4 19
10 -3 6 3 10 15 10 22 0 50 21 50 38 0 6 9 8 20 5 14 -4 20 0 20 11 0 10 9 16
25 16 14 0 25 5 25 10 0 6 8 10 18 10 10 0 24 9 32 20 8 11 22 20 32 20 10 0
18 5 18 10 0 6 9 10 20 10 12 0 32 10 45 23 44 41 54 47 75 47 12 0 18 5 15
10 -3 6 4 10 17 10 13 0 30 9 38 20 8 11 22 20 32 20 10 0 18 5 18 10 0 6 9
10 20 10 11 0 23 6 26 14 3 8 14 13 25 11 10 -2 19 1 19 6 0 16 27 39 44 39 9
0 16 5 16 10 0 6 12 10 26 10 14 0 23 4 20 8 -3 5 10 15 29 22 19 8 35 19 35
26 0 7 8 10 20 7 14 -4 20 0 20 12 0 11 5 15 15 11 8 -3 25 5 39 19 14 14 32
25 41 25 8 0 15 5 15 10 0 6 12 10 26 10 14 0 23 4 19 10 -3 6 4 10 17 10 13
0 31 11 42 24 10 14 24 22 32 19 9 -3 14 1 14 12 0 11 5 15 15 11 9 -3 18 1
21 9 4 8 15 15 25 15 10 0 19 5 19 10 0 6 7 10 15 10 8 0 15 5 15 10 0 6 9 10
19 10 11 0 21 5 23 10 2 6 13 12 26 13 12 0 22 7 22 15 0 7 5 10 10 7 6 -3 10
1 10 10 0 9 4 14 9 10 5 -3 16 2 24 10 9 8 23 15 31 15 9 0 16 5 16 10 0 6 10
10 23 10 12 0 29 9 37 20 8 11 22 20 32 20 10 0 18 5 18 10 0 6 11 10 25 10
19 0 23 4 18 17 -4 10 -2 14 4 10 6 -4 18 -1 26 7 8 8 17 12 21 9 3 -3 8 2 12
11 3 9 15 16 25 16 10 0 19 5 19 10 0 6 12 10 26 10 14 0 23 4 19 10 -3 6 1
10 9 10 9 0 16 5 16 10 0 6 9 10 20 10 11 0 20 7 20 15 0 9 6 12 16 8 9 -3 20
0 24 7 5 8 16 15 25 16 9 1 24 12 34 23 10 12 26 21 35 21 9 0 16 5 16 10 0 6
9 10 20 10 11 0 20 5 20 10 0 6 8 10 18 10 21 1 52 23 52 38 0 6 9 9 20 7 11
-2 18 0 15 6 -4 5 7 12 24 15 17 4 28 10 25 15 -3 5 5 9 18 9 13 0 30 9 38 20
8 11 22 20 32 20 10 0 18 5 18 10 0 6 8 10 19 10 10 0 30 11 44 24 14 13 28
21 31 19 3 -3 8 2 12 11 3 9 15 16 25 16 10 0 19 5 19 10 0 6 10 10 23 10 12
0 29 9 37 20 8 11 22 20 32 20 10 0 18 5 18 10 0 6 11 10 25 10 15 0 24 5 23
12 -2 8 7 13 20 12 12 0 22 3 22 8 0 15 27 38 44 38 9 0 16 5 16 10 0 6 12 10
26 10 14 0 23 4 19 10 -3 6 3 10 15 10 22 0 50 21 50 39 0 5 9 8 20 6 13 -2
20 2 20 11 0 8 10 14 25 14 14 0 25 5 25 10 0 6 8 10 18 10 10 0 24 9 32 20 8
11 22 20 32 20 10 0 18 5 18 10 0 6 10 10 21 10 12 0 32 11 44 24 13 14 26 22
29 19 3 -3 8 2 12 11 3 9 13 16 20 16 8 0 26 7 39 16 14 9 25 13 25 9 0 -5 8
2 19 13 10 12 26 22 35 22 9 0 16 5 16 10 0 6 9 10 20 10 11 0 20 6 20 14 0
10 8 13 25 10 14 -2 25 0 25 7 0 16 26 39 44 39 9 0 16 5 16 10 0 6 12 10 26
10 14 0 23 4 19 10 -3 6 3 10 15 10 11 0 32 11 46 25 14 14 31 22 39 19 11 -5
13 -2 8 11 -5 15 -2 17 16 12 14 -3 24 0 28 9 3 8 13 14 22 14 9 0 23 9 31 20
8 11 22 20 32 20 10 0 18 5 18 10 0 6 8 10 18 10 10 0 28 9 39 19 12 11 24 17
27 14 3 -4 6 -1 6 6 0 7 5 9 10 6 6 -3 10 1 10 10 0 11 5 15 15 11 9 -3 18 1
21 9 4 8 16 15 28 15 12 0 28 9 36 20 8 11 22 20 32 20 10 0 18 5 18 10 0 6
11 10 24 10 13 0 26 7 30 15 3 8 12 12 21 9 10 -4 15 0 15 11 0 9 5 13 10 10
6 -3 10 1 10 10 0 9 4 14 9 10 5 -3 16 2 24 10 9 8 25 15 36 15 12 0 21 5 21
10 0 6 8 10 18 10 10 0 24 9 32 20 8 11 22 20 32 20 10 0 18 6 18 14 0 8 9 12
24 11 14 -2 27 3 30 11 3 8 11 14 18 14 8 0 20 9 28 20 8 11 22 20 32 20 10 0
18 5 18 10 0 6 10 10 21 10 12 0 32 11 44 24 13 14 26 22 30 18 3 -4 11 1 16
10 5 10 18 15 29 13 13 -2 20 2 20 11 0 8 8 14 18 14 10 0 24 9 32 20 8 11 22
20 32 20 10 0 18 5 18 10 0 6 9 10 19 10 11 0 23 5 26 10 3 6 15 10 26 10 11
0 19 7 19 16 0 8 5 12 10 9 6 -3 10 1 10 9 0 9 9 16 20 16 11 0 20 5 20 10 0
6 11 10 25 10 14 0 25 5 25 10 0 6 8 10 18 10 10 0 24 9 32 20 8 11 25 20 37
20 14 0 23 6 23 16 0 8 4 12 10 9 7 -4 10 1288 10 3829 0 3470 -1 3836 -16
3836 -8 0 -12 5 -9 10 3 6 -5 10 -18 10 -14 0 -27 7 -31 15 -3 8 -11 12 -19 9
-7 -2 -19 6 -27 21 -8 16 -22 25 -37 25 -13 0 -23 5 -23 10 0 6 -9 10 -20 10
-11 0 -20 5 -20 10 0 6 -8 10 -18 10 -10 0 -24 9 -32 20 -8 11 -22 20 -31 20
-9 0 -22 7 -29 15 -7 8 -16 12 -21 9 -5 -3 -12 2 -15 10 -3 9 -14 16 -23 16
-20 1 -53 25 -44 33 3 4 -6 7 -20 7 -15 0 -27 5 -27 10 0 6 -9 10 -20 10 -11
0 -20 5 -20 10 0 6 -7 10 -15 10 -19 0 -56 31 -49 42 3 4 -6 8 -20 8 -14 0
-26 5 -26 10 0 6 -9 10 -20 10 -11 0 -20 5 -20 10 0 6 -9 10 -21 10 -11 0 -17
5 -14 10 3 6 -3 10 -14 10 -12 0 -21 5 -21 10 0 6 -9 10 -20 10 -11 0 -20 5
-20 10 0 6 -9 10 -20 10 -11 0 -20 7 -20 16 0 8 -4 12 -10 9 -5 -3 -10 1 -10
11 0 14 -2 15 -17 3 -11 -10 -14 -10 -9 -1 4 7 1 12 -8 12 -9 0 -16 5 -16 10
0 6 -9 10 -20 10 -11 0 -20 5 -20 10 0 6 -7 10 -15 10 -9 0 -25 9 -37 20 -12
11 -29 20 -39 20 -9 0 -19 7 -23 15 -3 8 -12 12 -21 9 -10 -4 -15 0 -15 10 0
9 -7 16 -15 16 -9 0 -25 9 -37 20 -12 11 -30 20 -40 20 -10 0 -18 5 -18 10 0
6 -9 10 -20 10 -11 0 -20 5 -20 10 0 6 -12 10 -26 10 -14 0 -23 4 -19 10 3 6
-1 10 -10 10 -9 0 -13 5 -10 10 5 9 -15 15 -37 11 -5 0 -8 6 -8 14 0 8 -9 15
-20 15 -11 0 -20 4 -20 8 0 4 -16 14 -35 21 -19 7 -35 17 -35 22 0 5 -9 9 -20
9 -11 0 -20 5 -20 10 0 6 -7 10 -15 10 -19 0 -56 36 -47 46 4 4 -1 4 -10 1
-10 -3 -24 0 -32 8 -8 8 -22 15 -30 15 -9 0 -16 5 -16 10 0 6 -7 10 -15 10 -9
0 -25 9 -37 20 -12 11 -30 20 -40 20 -10 0 -18 5 -18 10 0 6 -9 10 -19 10 -10
0 -22 7 -25 16 -3 8 -10 13 -14 10 -5 -3 -20 6 -35 20 -14 13 -33 24 -42 24
-8 0 -15 5 -15 10 0 6 -9 10 -20 10 -11 0 -20 5 -20 10 0 6 -12 10 -26 10 -14
0 -23 4 -19 10 3 6 0 10 -8 10 -8 0 -18 7 -21 16 -3 8 -10 12 -16 9 -6 -3 -13
1 -16 10 -4 9 -13 14 -21 11 -7 -3 -16 1 -19 9 -4 8 -14 15 -23 15 -10 0 -27
9 -39 20 -12 11 -28 20 -37 20 -8 0 -15 5 -15 10 0 6 -7 10 -16 10 -9 0 -26
10 -38 23 -12 12 -29 23 -36 25 -8 2 -18 8 -21 14 -4 6 -12 7 -18 4 -6 -4 -14
0 -17 9 -4 9 -12 14 -19 11 -7 -2 -24 7 -38 20 -14 13 -33 24 -42 24 -8 0 -15
5 -15 10 0 6 -9 10 -20 10 -11 0 -20 7 -20 15 0 8 -6 12 -14 9 -8 -3 -25 6
-39 20 -15 14 -33 26 -42 26 -8 0 -15 5 -15 10 0 6 -9 10 -20 10 -11 0 -20 5
-20 10 0 6 -10 10 -23 10 -12 0 -29 9 -37 20 -8 11 -22 20 -32 20 -10 0 -18 7
-18 16 0 11 -6 14 -20 9 -13 -4 -20 -2 -20 7 0 8 -16 20 -35 27 -19 7 -35 17
-35 22 0 5 -9 9 -20 9 -11 0 -20 4 -20 10 0 5 -3 9 -7 9 -23 -4 -43 2 -38 11
3 6 -1 10 -10 10 -9 0 -13 5 -10 10 6 10 -7 14 -32 11 -7 -1 -13 6 -13 15 0
11 -6 15 -20 11 -13 -3 -20 0 -20 9 0 8 -6 14 -12 13 -26 -3 -39 1 -33 11 3 6
-1 10 -9 10 -9 0 -16 5 -16 10 0 6 -9 10 -20 10 -11 0 -20 5 -20 10 0 6 -9 10
-20 10 -11 0 -20 5 -20 10 0 6 -7 10 -15 10 -8 0 -26 12 -40 26 -14 14 -32 23
-40 20 -9 -3 -15 1 -15 9 0 9 -10 15 -26 15 -14 0 -23 4 -19 10 3 6 -4 10 -17
10 -13 0 -30 9 -38 20 -8 11 -22 20 -32 20 -10 0 -18 7 -18 16 0 8 -4 13 -9
10 -13 -8 -42 4 -35 15 3 5 -2 9 -10 9 -9 0 -16 5 -16 10 0 6 -9 10 -20 10
-11 0 -20 5 -20 10 0 6 -9 10 -20 10 -11 0 -20 5 -20 10 0 6 -12 10 -26 10
-14 0 -23 4 -19 10 3 6 -1 10 -9 10 -9 0 -16 5 -16 10 0 6 -9 10 -19 10 -10 0
-22 7 -25 16 -4 9 -13 14 -21 10 -9 -3 -15 1 -15 10 0 10 -6 14 -15 10 -8 -3
-25 5 -39 19 -14 14 -32 25 -41 25 -8 0 -15 5 -15 10 0 6 -9 10 -20 10 -11 0
-20 5 -20 10 0 6 -7 10 -15 10 -8 0 -14 6 -13 13 2 7 -6 12 -19 11 -14 -1 -23
4 -23 13 0 10 -7 14 -20 10 -13 -3 -20 0 -20 9 0 8 -10 14 -26 14 -14 0 -23 4
-19 10 3 6 -1 10 -9 10 -9 0 -16 5 -16 10 0 6 -9 10 -20 10 -11 0 -20 5 -20
10 0 6 -9 10 -20 10 -11 0 -20 5 -20 10 0 6 -9 10 -19 10 -10 0 -22 7 -25 16
-3 8 -10 13 -15 10 -5 -3 -11 1 -15 9 -3 8 -12 15 -21 15 -8 0 -15 5 -15 10 0
6 -9 10 -20 10 -11 0 -20 5 -20 10 0 6 -7 10 -16 10 -8 0 -12 5 -9 10 4 6 -5
10 -19 10 -14 0 -26 5 -26 10 0 6 -9 10 -19 10 -10 0 -22 7 -25 16 -3 8 -10
13 -14 10 -5 -3 -20 6 -32 19 -13 14 -32 25 -42 25 -10 0 -18 5 -18 10 0 6 -9
10 -20 10 -11 0 -20 5 -20 10 0 6 -8 10 -18 10 -10 0 -28 9 -40 20 -12 11 -28
20 -37 20 -8 0 -15 6 -15 14 0 9 -7 13 -20 11 -13 -2 -20 2 -20 11 0 8 -7 14
-16 14 -8 0 -12 5 -9 10 4 6 -5 10 -19 10 -14 0 -26 5 -26 10 0 6 -9 10 -20
10 -11 0 -20 5 -20 10 0 6 -9 10 -19 10 -11 0 -29 12 -40 26 -12 15 -21 24
-21 20 0 -4 -10 -1 -22 6 -13 7 -27 11 -31 10 -4 -1 -10 5 -13 13 -4 8 -15 15
-25 15 -10 0 -19 5 -19 10 0 6 -7 10 -15 10 -8 0 -15 5 -15 10 0 6 -9 10 -20
10 -11 0 -20 5 -20 10 0 6 -7 10 -16 10 -17 0 -44 23 -44 39 0 5 -9 8 -20 6
-12 -2 -23 2 -27 11 -3 8 -12 13 -20 10 -7 -3 -16 1 -19 9 -4 8 -15 15 -25 15
-10 0 -19 5 -19 10 0 6 -7 10 -16 10 -8 0 -12 5 -9 10 4 6 -5 10 -19 10 -14 0
-26 5 -26 10 0 6 -9 10 -20 10 -11 0 -20 7 -20 15 0 9 -6 12 -15 9 -8 -4 -17
1 -21 10 -3 9 -12 16 -20 16 -8 0 -14 5 -14 10 0 6 -9 10 -20 10 -11 0 -20 5
-20 10 0 6 -8 10 -18 10 -10 0 -24 9 -32 20 -8 11 -25 20 -38 20 -13 0 -20 4
-17 10 5 9 -15 15 -37 11 -5 0 -8 5 -8 13 0 9 -7 13 -20 11 -11 -2 -20 1 -20
6 0 17 -27 39 -49 39 -12 0 -21 5 -21 10 0 6 -9 10 -20 10 -11 0 -20 5 -20 10
0 6 -8 10 -18 10 -9 0 -25 11 -35 24 -12 15 -26 23 -38 21 -12 -3 -19 2 -19
12 0 9 -6 13 -14 10 -8 -3 -22 5 -32 19 -11 13 -29 24 -41 24 -13 0 -23 5 -23
10 0 6 -9 10 -20 10 -11 0 -20 5 -20 10 0 6 -7 10 -16 10 -18 0 -44 24 -44 40
0 7 -6 10 -14 7 -8 -3 -20 1 -27 9 -7 8 -18 13 -26 10 -8 -3 -16 1 -19 9 -4 8
-10 13 -14 10 -5 -3 -20 6 -34 20 -14 14 -34 25 -46 25 -11 0 -20 5 -20 10 0
6 -9 10 -20 10 -11 0 -20 7 -20 16 0 8 -4 12 -10 9 -5 -3 -10 1 -10 9 0 9 -3
15 -7 15 -23 -4 -43 2 -38 11 4 6 -5 10 -19 10 -14 0 -26 5 -26 10 0 6 -7 10
-16 10 -9 0 -25 9 -35 21 -10 11 -22 18 -28 15 -5 -4 -13 0 -18 8 -12 21 -63
29 -70 10z m6644 -3916 c-2 -13 -4 -3 -4 22 0 25 2 35 4 23 2 -13 2 -33 0 -45z
m0 -65 c-3 -10 -5 -4 -5 12 0 17 2 24 5 18 2 -7 2 -21 0 -30z m0 -85 c-2 -13
-4 -3 -4 22 0 25 2 35 4 23 2 -13 2 -33 0 -45z m0 -50 c-3 -8 -6 -5 -6 6 -1
11 2 17 5 13 3 -3 4 -12 1 -19z m0 -40 c-3 -8 -6 -5 -6 6 -1 11 2 17 5 13 3
-3 4 -12 1 -19z m0 -80 c-2 -13 -4 -3 -4 22 0 25 2 35 4 23 2 -13 2 -33 0 -45z
m0 -65 c-3 -10 -5 -4 -5 12 0 17 2 24 5 18 2 -7 2 -21 0 -30z m0 -85 c-2 -13
-4 -3 -4 22 0 25 2 35 4 23 2 -13 2 -33 0 -45z m0 -50 c-3 -8 -6 -5 -6 6 -1
11 2 17 5 13 3 -3 4 -12 1 -19z m0 -40 c-3 -8 -6 -5 -6 6 -1 11 2 17 5 13 3
-3 4 -12 1 -19z m0 -80 c-2 -13 -4 -3 -4 22 0 25 2 35 4 23 2 -13 2 -33 0 -45z
m0 -65 c-3 -10 -5 -4 -5 12 0 17 2 24 5 18 2 -7 2 -21 0 -30z m0 -85 c-2 -13
-4 -3 -4 22 0 25 2 35 4 23 2 -13 2 -33 0 -45z m0 -50 c-3 -8 -6 -5 -6 6 -1
11 2 17 5 13 3 -3 4 -12 1 -19z m0 -40 c-3 -8 -6 -5 -6 6 -1 11 2 17 5 13 3
-3 4 -12 1 -19z m0 -80 c-2 -13 -4 -3 -4 22 0 25 2 35 4 23 2 -13 2 -33 0 -45z
m0 -65 c-3 -10 -5 -4 -5 12 0 17 2 24 5 18 2 -7 2 -21 0 -30z m0 -85 c-2 -13
-4 -3 -4 22 0 25 2 35 4 23 2 -13 2 -33 0 -45z m0 -50 c-3 -8 -6 -5 -6 6 -1
11 2 17 5 13 3 -3 4 -12 1 -19z m0 -40 c-3 -8 -6 -5 -6 6 -1 11 2 17 5 13 3
-3 4 -12 1 -19z m0 -80 c-2 -13 -4 -3 -4 22 0 25 2 35 4 23 2 -13 2 -33 0 -45z
m0 -65 c-3 -10 -5 -4 -5 12 0 17 2 24 5 18 2 -7 2 -21 0 -30z m0 -85 c-2 -13
-4 -3 -4 22 0 25 2 35 4 23 2 -13 2 -33 0 -45z m0 -50 c-3 -8 -6 -5 -6 6 -1
11 2 17 5 13 3 -3 4 -12 1 -19z m0 -40 c-3 -8 -6 -5 -6 6 -1 11 2 17 5 13 3
-3 4 -12 1 -19z m0 -80 c-2 -13 -4 -3 -4 22 0 25 2 35 4 23 2 -13 2 -33 0 -45z
m0 -65 c-3 -10 -5 -4 -5 12 0 17 2 24 5 18 2 -7 2 -21 0 -30z m0 -85 c-2 -13
-4 -3 -4 22 0 25 2 35 4 23 2 -13 2 -33 0 -45z m0 -50 c-3 -8 -6 -5 -6 6 -1
11 2 17 5 13 3 -3 4 -12 1 -19z m0 -40 c-3 -8 -6 -5 -6 6 -1 11 2 17 5 13 3
-3 4 -12 1 -19z m0 -80 c-2 -13 -4 -3 -4 22 0 25 2 35 4 23 2 -13 2 -33 0 -45z
m0 -65 c-3 -10 -5 -4 -5 12 0 17 2 24 5 18 2 -7 2 -21 0 -30z m0 -85 c-2 -13
-4 -3 -4 22 0 25 2 35 4 23 2 -13 2 -33 0 -45z m0 -50 c-3 -8 -6 -5 -6 6 -1
11 2 17 5 13 3 -3 4 -12 1 -19z m0 -40 c-3 -8 -6 -5 -6 6 -1 11 2 17 5 13 3
-3 4 -12 1 -19z m0 -80 c-2 -13 -4 -3 -4 22 0 25 2 35 4 23 2 -13 2 -33 0 -45z
m0 -65 c-3 -10 -5 -4 -5 12 0 17 2 24 5 18 2 -7 2 -21 0 -30z m0 -85 c-2 -13
-4 -3 -4 22 0 25 2 35 4 23 2 -13 2 -33 0 -45z m0 -65 c-3 -10 -5 -4 -5 12 0
17 2 24 5 18 2 -7 2 -21 0 -30z m0 -55 c-3 -7 -5 -2 -5 12 0 14 2 19 5 13 2
-7 2 -19 0 -25z m0 -80 c-3 -7 -5 -2 -5 12 0 14 2 19 5 13 2 -7 2 -19 0 -25z
m0 -50 c-3 -8 -6 -5 -6 6 -1 11 2 17 5 13 3 -3 4 -12 1 -19z m0 -80 c-2 -13
-4 -3 -4 22 0 25 2 35 4 23 2 -13 2 -33 0 -45z m0 -65 c-3 -10 -5 -4 -5 12 0
17 2 24 5 18 2 -7 2 -21 0 -30z m0 -85 c-2 -13 -4 -3 -4 22 0 25 2 35 4 23 2
-13 2 -33 0 -45z m0 -65 c-3 -10 -5 -4 -5 12 0 17 2 24 5 18 2 -7 2 -21 0 -30z
m0 -55 c-3 -7 -5 -2 -5 12 0 14 2 19 5 13 2 -7 2 -19 0 -25z m0 -80 c-3 -7 -5
-2 -5 12 0 14 2 19 5 13 2 -7 2 -19 0 -25z m0 -55 c-3 -10 -5 -4 -5 12 0 17 2
24 5 18 2 -7 2 -21 0 -30z m0 -60 c-3 -10 -5 -4 -5 12 0 17 2 24 5 18 2 -7 2
-21 0 -30z m0 -100 c-2 -16 -4 -3 -4 27 0 30 2 43 4 28 2 -16 2 -40 0 -55z m0
-65 c-3 -7 -5 -2 -5 12 0 14 2 19 5 13 2 -7 2 -19 0 -25z m0 -65 c-3 -10 -5
-2 -5 17 0 19 2 27 5 18 2 -10 2 -26 0 -35z m0 -55 c-3 -7 -5 -2 -5 12 0 14 2
19 5 13 2 -7 2 -19 0 -25z m0 -80 c-3 -7 -5 -2 -5 12 0 14 2 19 5 13 2 -7 2
-19 0 -25z m0 -50 c-3 -8 -6 -5 -6 6 -1 11 2 17 5 13 3 -3 4 -12 1 -19z m0
-80 c-2 -13 -4 -3 -4 22 0 25 2 35 4 23 2 -13 2 -33 0 -45z m0 -65 c-3 -10 -5
-4 -5 12 0 17 2 24 5 18 2 -7 2 -21 0 -30z m0 -85 c-2 -13 -4 -3 -4 22 0 25 2
35 4 23 2 -13 2 -33 0 -45z m0 -65 c-3 -10 -5 -4 -5 12 0 17 2 24 5 18 2 -7 2
-21 0 -30z m0 -55 c-3 -7 -5 -2 -5 12 0 14 2 19 5 13 2 -7 2 -19 0 -25z m0
-80 c-3 -7 -5 -2 -5 12 0 14 2 19 5 13 2 -7 2 -19 0 -25z m0 -55 c-3 -10 -5
-4 -5 12 0 17 2 24 5 18 2 -7 2 -21 0 -30z m0 -60 c-3 -10 -5 -4 -5 12 0 17 2
24 5 18 2 -7 2 -21 0 -30z m0 -100 c-2 -16 -4 -3 -4 27 0 30 2 43 4 28 2 -16
2 -40 0 -55z m0 -65 c-3 -7 -5 -2 -5 12 0 14 2 19 5 13 2 -7 2 -19 0 -25z m0
-65 c-3 -10 -5 -2 -5 17 0 19 2 27 5 18 2 -10 2 -26 0 -35z m0 -55 c-3 -7 -5
-2 -5 12 0 14 2 19 5 13 2 -7 2 -19 0 -25z m0 -80 c-3 -7 -5 -2 -5 12 0 14 2
19 5 13 2 -7 2 -19 0 -25z m0 -50 c-3 -8 -6 -5 -6 6 -1 11 2 17 5 13 3 -3 4
-12 1 -19z m0 -80 c-2 -13 -4 -3 -4 22 0 25 2 35 4 23 2 -13 2 -33 0 -45z m0
-65 c-3 -10 -5 -4 -5 12 0 17 2 24 5 18 2 -7 2 -21 0 -30z m0 -85 c-2 -13 -4
-3 -4 22 0 25 2 35 4 23 2 -13 2 -33 0 -45z m0 -65 c-3 -10 -5 -4 -5 12 0 17
2 24 5 18 2 -7 2 -21 0 -30z m0 -55 c-3 -7 -5 -2 -5 12 0 14 2 19 5 13 2 -7 2
-19 0 -25z m0 -80 c-3 -7 -5 -2 -5 12 0 14 2 19 5 13 2 -7 2 -19 0 -25z m0
-50 c-3 -8 -6 -5 -6 6 -1 11 2 17 5 13 3 -3 4 -12 1 -19z m0 -80 c-2 -13 -4
-3 -4 22 0 25 2 35 4 23 2 -13 2 -33 0 -45z m0 -65 c-3 -10 -5 -4 -5 12 0 17
2 24 5 18 2 -7 2 -21 0 -30z m0 -85 c-2 -13 -4 -3 -4 22 0 25 2 35 4 23 2 -13
2 -33 0 -45z m0 -50 c-3 -8 -6 -5 -6 6 -1 11 2 17 5 13 3 -3 4 -12 1 -19z m0
-40 c-3 -8 -6 -5 -6 6 -1 11 2 17 5 13 3 -3 4 -12 1 -19z m0 -80 c-2 -13 -4
-3 -4 22 0 25 2 35 4 23 2 -13 2 -33 0 -45z m0 -65 c-3 -10 -5 -4 -5 12 0 17
2 24 5 18 2 -7 2 -21 0 -30z m0 -85 c-2 -13 -4 -3 -4 22 0 25 2 35 4 23 2 -13
2 -33 0 -45z m0 -50 c-3 -8 -6 -5 -6 6 -1 11 2 17 5 13 3 -3 4 -12 1 -19z m0
-40 c-3 -8 -6 -5 -6 6 -1 11 2 17 5 13 3 -3 4 -12 1 -19z m0 -80 c-2 -13 -4
-3 -4 22 0 25 2 35 4 23 2 -13 2 -33 0 -45z m0 -65 c-3 -10 -5 -4 -5 12 0 17
2 24 5 18 2 -7 2 -21 0 -30z m0 -85 c-2 -13 -4 -3 -4 22 0 25 2 35 4 23 2 -13
2 -33 0 -45z m0 -50 c-3 -8 -6 -5 -6 6 -1 11 2 17 5 13 3 -3 4 -12 1 -19z m0
-40 c-3 -8 -6 -5 -6 6 -1 11 2 17 5 13 3 -3 4 -12 1 -19z m0 -80 c-2 -13 -4
-3 -4 22 0 25 2 35 4 23 2 -13 2 -33 0 -45z m0 -65 c-3 -10 -5 -4 -5 12 0 17
2 24 5 18 2 -7 2 -21 0 -30z m0 -85 c-2 -13 -4 -3 -4 22 0 25 2 35 4 23 2 -13
2 -33 0 -45z m0 -90 c-2 -13 -4 -3 -4 22 0 25 2 35 4 23 2 -13 2 -33 0 -45z
m0 -65 c-3 -10 -5 -4 -5 12 0 17 2 24 5 18 2 -7 2 -21 0 -30z m0 -100 c-2 -16
-4 -3 -4 27 0 30 2 43 4 28 2 -16 2 -40 0 -55z m0 -65 c-3 -7 -5 -2 -5 12 0
14 2 19 5 13 2 -7 2 -19 0 -25z m0 -65 c-3 -10 -5 -2 -5 17 0 19 2 27 5 18 2
-10 2 -26 0 -35z m0 -55 c-3 -7 -5 -2 -5 12 0 14 2 19 5 13 2 -7 2 -19 0 -25z
m0 -80 c-3 -7 -5 -2 -5 12 0 14 2 19 5 13 2 -7 2 -19 0 -25z m0 -50 c-3 -8 -6
-5 -6 6 -1 11 2 17 5 13 3 -3 4 -12 1 -19z m0 -80 c-2 -13 -4 -3 -4 22 0 25 2
35 4 23 2 -13 2 -33 0 -45z m0 -65 c-3 -10 -5 -4 -5 12 0 17 2 24 5 18 2 -7 2
-21 0 -30z m0 -85 c-2 -13 -4 -3 -4 22 0 25 2 35 4 23 2 -13 2 -33 0 -45z m0
-65 c-3 -10 -5 -4 -5 12 0 17 2 24 5 18 2 -7 2 -21 0 -30z m0 -55 c-3 -7 -5
-2 -5 12 0 14 2 19 5 13 2 -7 2 -19 0 -25z m0 -80 c-3 -7 -5 -2 -5 12 0 14 2
19 5 13 2 -7 2 -19 0 -25z m0 -55 c-3 -10 -5 -4 -5 12 0 17 2 24 5 18 2 -7 2
-21 0 -30z m0 -60 c-3 -10 -5 -4 -5 12 0 17 2 24 5 18 2 -7 2 -21 0 -30z m0
-100 c-2 -16 -4 -3 -4 27 0 30 2 43 4 28 2 -16 2 -40 0 -55z m0 -65 c-3 -7 -5
-2 -5 12 0 14 2 19 5 13 2 -7 2 -19 0 -25z"/>
</g>
</svg>
